<svg class="icon" viewBox="0 0 1024 1024" width="200" height="200"><path d="M857.43 128H681.471V76.459c0-27.307-24.235-48.64-48.64-48.64H390.315c-27.307 0-48.64 21.162-48.64 48.64V128H165.888c-27.307 0-48.64 21.163-48.64 48.64 0 27.307 21.163 48.64 48.64 48.64h691.541c27.307 0 48.64-21.163 48.64-48.64-.17-24.405-21.333-48.64-48.64-48.64zM165.887 291.67v630.783c0 42.496 33.45 75.776 72.704 75.776h545.963c42.496 0 72.704-33.45 72.704-75.776V291.67h-691.37zm235.35 248.32l66.389-110.251c1.706-2.902 4.778-3.584 7.68-2.56h95.232c1.877 0 4.608 1.365 5.802 3.242l51.542 84.651 15.701-9.899c2.56-1.365 5.803-1.365 7.85.683 1.878 1.877 2.56 5.29 1.366 7.85l-35.84 65.878c-1.365 2.048-3.243 3.243-5.29 3.243l-78.849 3.242c-2.56 0-5.29-2.048-6.485-4.608-.683-2.56.683-5.973 2.56-7.168l15.701-9.898-22.698-37.888-38.23 63.317c-.682 1.365-2.56 2.56-3.925 3.243h-1.877c-1.366 0-2.56 0-3.243-.683l-70.997-43.69c-3.755-1.537-4.267-5.462-2.39-8.705zm95.914 243.2l-120.661-.683 6.314-12.63-8.362 15.702c-1.366 1.877-3.243 3.242-5.974 3.242-2.56 0-4.437-1.365-5.802-3.242l-50.176-82.774c-1.366-1.877-1.366-4.608 0-6.485l46.933-88.064-16.384-8.533c-2.56-1.366-3.925-4.438-3.243-7.168.683-2.56 3.243-5.291 5.974-5.291l74.922-3.243c2.56 0 4.438 1.366 5.803 3.243l41.643 63.83c1.365 1.365 1.877 2.56 1.877 4.607 0 3.926-2.56 6.486-6.485 6.486-1.366 0-1.878 0-3.243-.683l-16.384-8.533-24.405 46.25 78.165 1.024-.512 82.944zm230.741-78.166l-50.176 82.773c-1.365 2.048-3.242 3.243-5.973 3.243h-98.987v18.261c0 3.243-1.877 5.291-4.608 6.486h-1.877c-2.56 0-4.608-1.366-5.973-3.243l-37.718-65.195c-1.365-1.877-1.365-4.608 0-6.485l37.718-67.243c1.365-2.56 4.608-3.925 7.168-3.242 2.56.682 4.437 3.242 4.437 6.485v18.261h46.25l-34.474-66.389c-2.048-3.243-.683-7.168 2.56-8.363l73.728-38.57c3.243-2.048 7.168-.683 8.533 2.56l59.392 114.005a6.629 6.629 0 0 1 0 6.656zm0 0"/></svg>