<svg class="icon" viewBox="0 0 1024 1024" xmlns="http://www.w3.org/2000/svg" width="200" height="200"><path d="M873.544 1024H150.456c-80.842 0-148.21-67.368-148.21-148.21V148.21C2.246 67.369 69.614 0 150.456 0h723.088c80.842 0 148.21 67.368 148.21 148.21v727.58c0 80.842-62.877 148.21-148.21 148.21zM150.456 62.877c-49.403 0-85.333 40.421-85.333 85.334v727.578c0 49.404 40.42 85.334 85.333 85.334h723.088c49.403 0 85.333-40.421 85.333-85.334V148.211c0-49.404-40.42-85.334-85.333-85.334H150.456z"/><path d="M177.404 386.246c-8.983 0-22.457-4.492-26.948-8.983-8.982-4.491-13.474-17.965-8.982-26.947 0-8.983 4.49-17.965 8.982-26.948 8.983-4.49 17.965-8.982 26.948-8.982 8.982 0 22.456 4.491 26.947 8.982 8.982 4.492 8.982 13.474 8.982 26.948 0 8.982-4.49 17.965-8.982 26.947-4.491 8.983-17.965 13.474-26.947 8.983zm35.93 260.49h-67.37v-224.56h67.37v224.56zm202.105-8.982c-22.457 8.983-44.913 13.474-67.369 13.474-31.438 0-62.877-8.982-85.333-31.439-22.456-22.456-31.439-49.403-31.439-80.842s8.983-67.368 35.93-89.824c26.947-22.456 58.386-35.93 89.825-31.439 17.965 0 40.42 0 58.386 8.983v58.386c-13.474-8.983-31.439-17.965-49.404-17.965-17.965 0-35.93 4.49-44.912 17.965-13.474 13.473-17.965 31.438-17.965 49.403s4.491 35.93 17.965 44.912c13.473 13.474 26.947 17.965 44.912 17.965s35.93-4.49 49.404-17.965v58.386zm130.245 13.474c-31.438 0-62.877-8.982-89.824-31.439-22.456-22.456-31.439-53.894-31.439-85.333s8.983-62.877 31.439-85.333c22.456-22.456 58.386-31.439 89.824-31.439s62.877 8.983 85.334 31.439c22.456 22.456 31.438 53.895 31.438 80.842 0 31.439-8.982 62.877-31.438 89.824-17.965 22.457-53.895 35.93-85.334 31.44zm0-179.65c-13.473 0-26.947 4.492-35.93 17.966-8.982 13.474-13.473 31.438-13.473 49.403 0 44.913 17.965 62.878 53.894 62.878 31.439 0 49.404-22.457 49.404-67.369 0-40.42-17.965-62.877-53.895-62.877zm359.298 175.159h-67.368V520.982c0-35.93-13.474-53.894-35.93-53.894-13.473 0-22.456 4.49-31.438 13.473-8.983 8.983-13.474 22.457-13.474 35.93v125.755h-67.368V417.684h67.368v35.93c13.474-26.947 40.421-40.421 71.86-40.421 49.403 0 76.35 31.439 76.35 94.316v139.228z"/></svg>