<svg class="icon" viewBox="0 0 1210 1024" width="200" height="200"><path d="M1005.382 1024H204.8c-27.927 0-46.545-18.618-46.545-46.545s18.618-46.546 46.545-46.546h809.89c27.928 0 46.546 18.618 46.546 46.546S1033.31 1024 1005.382 1024zM986.764 0H223.418C102.4 0 0 93.09 0 214.11V614.4c0 121.018 102.4 214.11 223.418 214.11h763.346c121.018 0 223.418-93.092 223.418-214.11V214.11C1210.182 93.09 1107.782 0 986.764 0zM837.818 577.164H372.364c-27.928 0-46.546-18.619-46.546-46.546s18.618-46.545 46.546-46.545h465.454c27.927 0 46.546 18.618 46.546 46.545s-18.619 46.546-46.546 46.546zm0-232.728H372.364c-27.928 0-46.546-18.618-46.546-46.545s18.618-46.546 46.546-46.546h465.454c27.927 0 46.546 18.619 46.546 46.546s-18.619 46.545-46.546 46.545z"/></svg>