<svg class="icon" viewBox="0 0 1024 1024" xmlns="http://www.w3.org/2000/svg" width="200" height="200"><path d="M858.027 1023.886H165.973c-65.063 0-118.299-51.739-118.299-114.982V115.115C47.674 51.872 100.91.133 165.973.133h692.054c65.063 0 118.299 51.739 118.299 114.982v793.789c0 63.243-53.236 114.982-118.299 114.982zm51.038-886.502c0-33.394-40.349-60.704-62.447-60.704H189.625c-46.584 0-74.69 27.31-74.69 60.704v749.27c0 33.375 28.106 60.685 62.447 60.685h669.236c34.341 0 62.447-27.31 62.447-60.685v-749.27zM795.447 764.489H403.746c-22.762 0-41.221-16.848-41.221-37.62v-1.137c0-20.771 18.46-37.62 41.22-37.62h391.702c22.762 0 41.221 16.849 41.221 37.62v1.137c0 20.772-18.46 37.62-41.22 37.62zm0-175.724H403.746c-22.762 0-41.221-16.924-41.221-37.809v-1.137c0-20.885 18.46-37.81 41.22-37.81h391.702c22.762 0 41.221 16.925 41.221 37.81v1.137c0 20.885-18.46 37.81-41.22 37.81zm0-221.985H403.746c-22.762 0-41.221-16.053-41.221-35.858v-1.099c0-19.805 18.46-35.857 41.22-35.857h391.702c22.762 0 41.221 16.052 41.221 35.857v1.1c0 19.804-18.46 35.857-41.22 35.857zm-533.86 396.837c-21.208 0-38.398-16.696-38.398-37.316s17.19-37.317 38.397-37.317c21.208 0 38.397 16.697 38.397 37.317s-17.19 37.316-38.397 37.316zm0-175.913c-21.208 0-38.398-16.697-38.398-37.317s17.19-37.316 38.397-37.316c21.208 0 38.397 16.697 38.397 37.316s-17.19 37.317-38.397 37.317zm0-220.924c-21.208 0-38.398-16.697-38.398-37.317s17.19-37.336 38.397-37.336c21.208 0 38.397 16.716 38.397 37.336s-17.19 37.317-38.397 37.317z"/></svg>