<svg class="icon" viewBox="0 0 1024 1024" xmlns="http://www.w3.org/2000/svg" width="200" height="200"><path d="M897.17 0H126.537C97.28 0 73.143 14.994 73.143 44.325v964.022h54.71l17.409-17.042c57.563-50.468 90.185-96.841 107.52-96.841 12.507 0 48.567 43.886 65.828 65.463 31.232 40.228 47.177 57.929 65.244 57.929 15.945 0 29.842-16.384 70.802-64.731a475.429 475.429 0 0 1 58.514-63.415 380.343 380.343 0 0 1 32.622 44.324A272.97 272.97 0 0 0 644.169 1024c36.06 0 70.802-51.2 101.303-92.014a453.486 453.486 0 0 1 31.232-40.887c19.456 9.509 46.519 55.882 102.4 100.206l19.017 16.384 52.444.658V44.325C950.857 15.653 927.232 0 897.17 0zM771.145 576.073a27.575 27.575 0 0 1-27.721 27.282H281.307a27.575 27.575 0 0 1-27.72-27.282v-19.09a27.575 27.575 0 0 1 27.72-27.282H743.57a27.575 27.575 0 0 1 27.721 27.282zm0-165.668a27.575 27.575 0 0 1-27.721 27.282H281.307a27.575 27.575 0 0 1-27.72-27.282v-19.09a27.575 27.575 0 0 1 27.72-27.283H743.57a27.575 27.575 0 0 1 27.721 27.282zm0-166.327a27.575 27.575 0 0 1-27.721 27.282H281.307a27.575 27.575 0 0 1-27.72-27.282v-19.09a27.575 27.575 0 0 1 27.72-27.502H743.57a27.575 27.575 0 0 1 27.721 27.282v19.09z"/></svg>