<svg class="icon" viewBox="0 0 1024 1024" width="200" height="200"><path d="M398.234 484.912H84.131a21.735 21.735 0 0 1-21.674-21.683V148.801a21.744 21.744 0 0 1 21.674-21.7h314.103a21.753 21.753 0 0 1 21.683 21.7v314.428a21.753 21.753 0 0 1-21.683 21.683zm0 477.088H84.131a21.744 21.744 0 0 1-21.674-21.691v-314.43a21.753 21.753 0 0 1 21.674-21.7h314.103a21.762 21.762 0 0 1 21.683 21.7v314.43A21.762 21.762 0 0 1 398.234 962zm476.605 0H560.735a21.762 21.762 0 0 1-21.682-21.691v-314.43a21.762 21.762 0 0 1 21.682-21.7H874.84a21.762 21.762 0 0 1 21.674 21.7v314.43A21.753 21.753 0 0 1 874.839 962zm80.385-640.644L733.106 543.72a21.718 21.718 0 0 1-30.647 0L480.351 321.356a21.806 21.806 0 0 1 0-30.691L702.459 68.328a21.718 21.718 0 0 1 30.647 0l222.118 222.363a21.788 21.788 0 0 1 0 30.665z"/></svg>