<svg class="icon" viewBox="0 0 1024 1024" xmlns="http://www.w3.org/2000/svg" width="200" height="200"><path d="M867.2 81.92H156.16A92.16 92.16 0 0 0 64 174.72v675.2a91.52 91.52 0 0 0 92.16 92.16H867.2a92.16 92.16 0 0 0 92.8-92.16v-675.2a92.8 92.8 0 0 0-92.8-92.8zM128 227.84v-53.76a26.24 26.24 0 0 1 26.24-26.24H867.2a26.88 26.88 0 0 1 26.88 26.88v53.12zm768 622.08a26.88 26.88 0 0 1-26.88 26.24H156.16A26.24 26.24 0 0 1 128 849.92V293.76h768z"/><path d="M341.12 768a36.48 36.48 0 0 0 19.84 6.4 32.64 32.64 0 0 0 25.6-12.8 33.92 33.92 0 0 0-2.56-45.44L240.64 609.28 384 494.72a33.28 33.28 0 0 0 3.2-46.72 33.28 33.28 0 0 0-46.72-5.12L166.4 584.32a32 32 0 0 0-12.16 26.24 31.36 31.36 0 0 0 12.8 25.6zm442.24-158.72L640 716.16a32.64 32.64 0 0 0-12.8 27.52A33.28 33.28 0 0 0 640 768a32 32 0 0 0 22.4 8.96 30.72 30.72 0 0 0 19.84-7.68l174.08-133.12a31.36 31.36 0 0 0 12.8-25.6 30.72 30.72 0 0 0-12.16-26.24l-173.44-140.8A33.28 33.28 0 0 0 640 448a32 32 0 0 0-7.04 24.96 31.36 31.36 0 0 0 12.16 22.4zM461.44 832h8.96a33.92 33.92 0 0 0 32-23.68l90.24-419.84a33.28 33.28 0 0 0-23.68-41.6 32.64 32.64 0 0 0-25.6 0 30.08 30.08 0 0 0-16 20.48l-88.32 424.96a32 32 0 0 0 0 25.6 33.92 33.92 0 0 0 22.4 14.08z"/></svg>