<svg class="icon" viewBox="0 0 1024 1024" xmlns="http://www.w3.org/2000/svg" width="200" height="200"><path d="M161.587 517.81c0-16.5 11.418-29.91 25.384-29.91h276.085v133.025h69.778V487.902H809.61c13.753 0 25.436 13.716 25.436 29.909v103.116h69.78V517.811c0-53.19-42.697-96.41-95.215-96.41H532.835V301.363C594.68 284.217 640.21 225.8 640.21 156.366c0-82.796-64.892-150.004-144.972-150.004S350.266 73.571 350.266 156.367c0 71.445 48.205 131.231 112.791 146.387V421.4H186.97c-52.466 0-95.162 43.22-95.162 96.41v103.116h69.778V517.811zm333.649 168.382c-80.08 0-144.972 67.157-144.972 150.054 0 82.895 64.892 150.055 144.972 150.055s144.972-67.16 144.972-150.055c0-82.897-64.892-150.054-144.972-150.054zm-350.483 4.1C64.726 690.292-.22 757.4-.22 840.294c0 82.898 64.946 150.105 144.973 150.105 80.133 0 145.078-67.207 145.078-150.105 0-82.895-64.945-150.002-145.078-150.002zm725.18.606c-80.13 0-145.078 67.21-145.078 150.004 0 82.898 64.947 150.105 145.079 150.105 80.027 0 144.973-67.208 144.973-150.105 0-82.794-64.944-150.004-144.973-150.004z"/></svg>